<?xml version="1.0" encoding="UTF-8" standalone="no"?>
<svg
   class="icon icon-tabler icon-tabler-building-tunnel"
   width="49.999996"
   height="49.999989"
   viewBox="0 0 49.999996 49.999989"
   stroke-width="2"
   stroke="#000000"
   fill="none"
   stroke-linecap="round"
   stroke-linejoin="round"
   version="1.1"
   id="svg10"
   sodipodi:docname="subway.svg"
   inkscape:version="1.3.2 (091e20e, 2023-11-25, custom)"
   xmlns:inkscape="http://www.inkscape.org/namespaces/inkscape"
   xmlns:sodipodi="http://sodipodi.sourceforge.net/DTD/sodipodi-0.dtd"
   xmlns="http://www.w3.org/2000/svg"
   xmlns:svg="http://www.w3.org/2000/svg">
  <defs
     id="defs10" />
  <sodipodi:namedview
     id="namedview10"
     pagecolor="#ffffff"
     bordercolor="#000000"
     borderopacity="0.25"
     inkscape:showpageshadow="2"
     inkscape:pageopacity="0.0"
     inkscape:pagecheckerboard="0"
     inkscape:deskcolor="#d1d1d1"
     inkscape:zoom="7.4314686"
     inkscape:cx="13.052602"
     inkscape:cy="51.201186"
     inkscape:window-width="1350"
     inkscape:window-height="1237"
     inkscape:window-x="2395"
     inkscape:window-y="109"
     inkscape:window-maximized="0"
     inkscape:current-layer="svg10" />
  <path
     stroke="none"
     d="m 12.999999,12.999994 h 24 v 24 h -24 z"
     fill="none"
     id="path1" />
  <path
     d="M 7.4999972,47.499992 H 42.500002 a 5.0000007,4.9999627 0 0 0 5.000001,-5.000264 v -17.49991 a 22.500004,22.499833 0 0 0 -45.000008,0 v 17.49991 a 5.0000007,4.9999627 0 0 0 5.0000022,5.000264 z"
     id="path2"
     style="stroke-width:4.99999" />
  <path
     d="M 14.999997,47.499992 V 25.000178 a 10.000002,9.9999231 0 1 1 20.000004,0 v 22.499814"
     id="path3"
     style="stroke-width:4.99999" />
  <path
     d="M 2.499995,37.500119 H 12.499997"
     id="path4"
     style="stroke-width:4.99999" />
  <path
     d="M 37.500001,37.500119 H 47.500003"
     id="path5"
     style="stroke-width:4.99999" />
  <path
     d="M 47.500003,25.000178 H 37.500001"
     id="path6"
     style="stroke-width:4.99999" />
  <path
     d="M 12.499997,25.000178 H 2.499995"
     id="path7"
     style="stroke-width:4.99999" />
  <path
     d="M 24.999999,2.5003642 V 15.000228"
     id="path8"
     style="stroke-width:4.99999" />
  <path
     d="m 9.9999969,10.000337 7.5000011,7.499882"
     id="path9"
     style="stroke-width:4.99999" />
  <path
     d="m 32.5,17.500219 7.500001,-7.499882 z"
     id="path10"
     style="stroke-width:4.99999" />
</svg>
